<svg width="73" height="25" viewBox="0 0 73 25" fill="none" xmlns="http://www.w3.org/2000/svg">
<path d="M68.5395 7.968V19.616C68.5395 20.1707 68.6569 20.5973 68.8915 20.896C69.1262 21.1947 69.6275 21.344 70.3955 21.344H71.2275C72.0595 21.344 72.4542 21.8347 72.4115 22.816C72.4115 23.8187 72.0168 24.32 71.2275 24.32H70.1715C69.4888 24.32 68.8489 24.2347 68.2515 24.064C67.6542 23.872 67.0782 23.6053 66.5235 23.264V23.296C65.4782 22.6133 64.9555 21.3973 64.9555 19.648V7.968H63.7075C62.9395 7.968 62.5342 7.46667 62.4915 6.464C62.4915 5.46133 62.8968 4.96 63.7075 4.96H64.9555V1.536C64.9555 0.512 65.5635 0 66.7795 0C67.9529 0 68.5395 0.512 68.5395 1.536V4.96H71.1955C72.0275 4.96 72.4222 5.46133 72.3795 6.464C72.3795 7.46667 71.9849 7.968 71.1955 7.968H68.5395Z" fill="white"/>
<path d="M46.0987 23.232L46.1307 23.2C45.9814 23.6907 45.6934 24.0107 45.2667 24.16C44.8401 24.3093 44.4134 24.384 43.9867 24.384C43.5814 24.384 43.1547 24.3093 42.7067 24.16C42.2801 24.0107 42.0027 23.6907 41.8747 23.2L41.9067 23.232L37.7147 6.656C37.4587 5.76 37.8747 5.16266 38.9627 4.864C40.0081 4.58666 40.6801 4.94933 40.9787 5.952V5.92L43.5707 16.352H44.4347L47.0267 5.92C47.1334 5.472 47.3681 5.184 47.7307 5.056C48.1147 4.90666 48.4667 4.832 48.7867 4.832C49.1494 4.832 49.5014 4.91733 49.8427 5.088C50.2054 5.23733 50.4507 5.51466 50.5787 5.92C50.7707 6.688 50.9414 7.40267 51.0907 8.064C51.2614 8.72533 51.4214 9.36533 51.5707 9.984C51.7201 10.6027 51.8587 11.2107 51.9867 11.808C52.1361 12.4053 52.2961 13.024 52.4667 13.664L53.1707 16.384H54.0347C54.4614 14.656 54.8881 12.9173 55.3147 11.168C55.7627 9.39733 56.2001 7.648 56.6267 5.92L56.5947 5.952C56.8934 4.94933 57.5654 4.58666 58.6107 4.864C59.6987 5.12 60.1147 5.71733 59.8587 6.656L55.6987 23.232L55.7307 23.2C55.6027 23.6907 55.3147 24.0107 54.8667 24.16C54.4401 24.3093 54.0134 24.384 53.5867 24.384C53.1814 24.384 52.7654 24.3093 52.3387 24.16C51.9121 24.0107 51.6241 23.6907 51.4747 23.2L51.5067 23.232L49.2347 14.24H48.3707L46.0987 23.232Z" fill="white"/>
<path d="M24.6795 24.224C24.0182 24.224 23.3888 24.1387 22.7915 23.968C22.1942 23.776 21.6182 23.5093 21.0635 23.168V23.2C20.0182 22.5387 19.4955 21.3227 19.4955 19.552V17.984C19.4955 17.1093 19.6448 16.352 19.9435 15.712C20.2635 15.0507 20.7008 14.528 21.2555 14.144H21.2235C21.7568 13.7813 22.3222 13.5147 22.9195 13.344C23.5168 13.152 24.0928 13.056 24.6475 13.056H31.7195V10.08C31.7195 9.54666 31.5488 9.06666 31.2075 8.63999C30.8875 8.19199 30.3328 7.96799 29.5435 7.96799H25.7995C24.9888 7.96799 24.4235 8.17066 24.1035 8.57599C23.8048 8.95999 23.6555 9.41866 23.6555 9.95199V10.208C23.6555 11.3173 23.0582 11.872 21.8635 11.872C20.6688 11.872 20.0715 11.3173 20.0715 10.208V9.91999C20.0715 9.04533 20.2208 8.30933 20.5195 7.71199C20.8395 7.11466 21.2662 6.61333 21.7995 6.20799H21.7675C22.3222 5.84533 22.8982 5.54666 23.4955 5.31199C24.1142 5.07733 24.7008 4.95999 25.2555 4.95999H30.1195C30.6528 4.95999 31.2182 5.07733 31.8155 5.31199C32.4342 5.54666 33.0102 5.84533 33.5435 6.20799H33.5115C34.0662 6.61333 34.4929 7.14666 34.7915 7.80799C35.0902 8.44799 35.2395 9.19466 35.2395 10.048V22.88C35.2395 23.904 34.6528 24.416 33.4795 24.416C33.2448 24.416 33.0208 24.4053 32.8075 24.384C32.6155 24.3627 32.4342 24.3093 32.2635 24.224C32.1142 24.1173 31.9862 23.9787 31.8795 23.808C31.7942 23.616 31.7515 23.3707 31.7515 23.072L31.7195 16.064H25.2555C24.7862 16.064 24.4235 16.1173 24.1675 16.224C23.9115 16.3307 23.7088 16.5013 23.5595 16.736C23.3888 17.0987 23.2608 17.3867 23.1755 17.6C23.1115 17.792 23.0795 18.016 23.0795 18.272V19.52C23.0795 20.0747 23.2395 20.5013 23.5595 20.8C23.9008 21.0773 24.4768 21.216 25.2875 21.216H28.8715C29.6608 21.216 30.0555 21.7173 30.0555 22.72C30.0555 23.1467 29.9595 23.5093 29.7675 23.808C29.5755 24.0853 29.2768 24.224 28.8715 24.224H24.6795Z" fill="white"/>
<path d="M10.56 13.024C11.0933 13.024 11.6587 13.152 12.256 13.408C12.8747 13.6427 13.4507 13.9413 13.984 14.304H13.952C14.5067 14.7093 14.9333 15.232 15.232 15.872C15.5307 16.512 15.68 17.28 15.68 18.176V19.136C15.68 20.8853 15.104 22.176 13.952 23.008C13.3973 23.4347 12.832 23.744 12.256 23.936C11.68 24.128 11.1147 24.224 10.56 24.224H5.12C4.56533 24.224 4 24.128 3.424 23.936C2.848 23.744 2.28267 23.4347 1.728 23.008C0.576 22.1973 0 20.9067 0 19.136V18.752C0 17.8347 0.586667 17.3867 1.76 17.408C2.95467 17.408 3.552 17.856 3.552 18.752V19.104C3.552 19.616 3.712 20.096 4.032 20.544C4.352 20.992 4.91733 21.216 5.728 21.216H9.952C10.7627 21.216 11.328 20.992 11.648 20.544C11.968 20.096 12.128 19.616 12.128 19.104V18.208C12.128 17.9307 12.0853 17.664 12 17.408C11.936 17.152 11.8187 16.928 11.648 16.736C11.4773 16.5227 11.2533 16.352 10.976 16.224C10.6987 16.096 10.3573 16.032 9.952 16.032H5.28C4.192 16.032 3.05067 15.648 1.856 14.88C0.725333 14.1547 0.16 12.9067 0.16 11.136V10.048C0.16 9.19466 0.309333 8.44799 0.608 7.80799C0.906667 7.14666 1.33333 6.61333 1.888 6.20799H1.856C2.38933 5.84533 2.95467 5.54666 3.552 5.31199C4.14933 5.07733 4.72533 4.95999 5.28 4.95999H10.4C10.9547 4.95999 11.52 5.07733 12.096 5.31199C12.6933 5.54666 13.2693 5.84533 13.824 6.20799H13.792C14.3467 6.61333 14.7733 7.14666 15.072 7.80799C15.3707 8.44799 15.52 9.19466 15.52 10.048V10.336C15.52 10.784 15.3707 11.1147 15.072 11.328C14.7733 11.52 14.336 11.6267 13.76 11.648C12.5867 11.6693 12 11.232 12 10.336V10.08C12 9.54666 11.8293 9.06666 11.488 8.63999C11.168 8.19199 10.6133 7.96799 9.824 7.96799H5.856C5.06667 7.96799 4.50133 8.19199 4.16 8.63999C3.84 9.06666 3.68 9.54666 3.68 10.08V10.848C3.68 11.4027 3.84 11.904 4.16 12.352C4.50133 12.8 5.06667 13.024 5.856 13.024H10.56Z" fill="white"/>
</svg>
